<svg width="93" height="13" fill="none" xmlns="http://www.w3.org/2000/svg"><path d="M.134.13h2.142V13H.134V.13zM4.492 13V.13h2.394l5.796 9.666h.037V.13h2.142V13h-2.377L6.67 3.37h-.035V13H4.492zm15.548 0V1.948h-4.12V.13h10.368v1.818h-4.104V13H20.04zm9.85-7.56h6.282v1.836H29.89v3.906h7.344V13h-9.486V.13h9.306v1.818H29.89V5.44zM38.98 13V.13h5.49c1.333 0 2.389.324 3.169.972.792.648 1.188 1.554 1.188 2.718 0 1.752-.798 2.82-2.394 3.204v.036c.552.108.996.372 1.332.792.336.42.558.9.666 1.44.108.54.18 1.074.216 1.602.036.516.072.966.108 1.35.048.384.132.594.252.63V13h-2.25c-.096-.096-.156-.336-.18-.72a129.02 129.02 0 01-.072-1.26 7.717 7.717 0 00-.198-1.386A2.001 2.001 0 0045.64 8.5c-.336-.312-.792-.468-1.368-.468h-3.15V13H38.98zm2.143-11.052v4.248h2.898c.384 0 .714-.024.99-.072a3.18 3.18 0 00.828-.27c.276-.144.486-.366.63-.666.156-.3.234-.672.234-1.116 0-.444-.078-.81-.234-1.098a1.417 1.417 0 00-.63-.666 2.827 2.827 0 00-.846-.288 5.743 5.743 0 00-.972-.072h-2.898zM49.54.13h2.268l3.276 10.53h.018L58.378.13h2.268L56.254 13h-2.322L49.54.13zm12.346 0h2.142V13h-2.142V.13zm6.5 5.31h6.282v1.836h-6.282v3.906h7.345V13h-9.486V.13h9.305v1.818h-7.163V5.44zM76.559.13h2.196l2.196 9.972h.036L83.579.13h2.196l2.61 9.972h.036L90.617.13h2.196L89.59 13h-2.25L84.695 2.92h-.036L82.03 13h-2.268L76.559.13z" fill="#fff" fill-opacity=".9"/></svg>